# xmcd
#
# Track frame offsets:
#	150
#	22857
#	41137
#	59942
#	83297
#	101697
#	122105
#	143065
#	165387
#	183272
#
# Disc length: 2727 seconds
# Revision: 0
# Processed by: cddbd v1.5.2PL0 Copyright (c) Steve Scherf et al.
# Submitted via: dBpowerAMP V12.0
#
DISCID=7c0aa50a
DTITLE=Ollie Nightingale - I'll Drink Your Bath Water, Baby
DYEAR=1995
DGENRE=Soul
TTITLE0=I'll Drink Your Bath Water, Baby
TTITLE1=Changing For The Better
TTITLE2=Cafe Woman
TTITLE3=Hold on
TTITLE4=I'm Ready to Party
TTITLE5=Babysitting
TTITLE6=You And Louise
TTITLE7=She's in a Midnight Mood in The Middle of The Day
TTITLE8=That's What You Are to me
TTITLE9=I Can Show You Better Than I Can Tell You
EXTD=
EXTT0=
EXTT1=
EXTT2=
EXTT3=
EXTT4=
EXTT5=
EXTT6=
EXTT7=
EXTT8=
EXTT9=
PLAYORDER=
